<?xml version="1.0" encoding="UTF-8" standalone="no"?>
<!-- Created with Inkscape (http://www.inkscape.org/) -->

<svg
   xmlns:dc="http://purl.org/dc/elements/1.1/"
   xmlns:cc="http://creativecommons.org/ns#"
   xmlns:rdf="http://www.w3.org/1999/02/22-rdf-syntax-ns#"
   xmlns:svg="http://www.w3.org/2000/svg"
   xmlns="http://www.w3.org/2000/svg"
   xmlns:sodipodi="http://sodipodi.sourceforge.net/DTD/sodipodi-0.dtd"
   xmlns:inkscape="http://www.inkscape.org/namespaces/inkscape"
   width="45.721413mm"
   height="16.153589mm"
   viewBox="0 0 162.00501 57.237127"
   id="svg6497"
   version="1.1"
   inkscape:version="0.91 r"
   sodipodi:docname="hotdog.svg"
   inkscape:export-filename="/home/joel/repos/cs3226/cs3226-lab-1/app/images/fast-food/hotdog.png"
   inkscape:export-xdpi="90"
   inkscape:export-ydpi="90">
  <defs
     id="defs6499">
    <clipPath
       clipPathUnits="userSpaceOnUse"
       id="clipPath1644">
      <path
         d="M 0,800 800,800 800,0 0,0 0,800 Z"
         id="path1646"
         inkscape:connector-curvature="0" />
    </clipPath>
  </defs>
  <sodipodi:namedview
     id="base"
     pagecolor="#ffffff"
     bordercolor="#666666"
     borderopacity="1.0"
     inkscape:pageopacity="0.0"
     inkscape:pageshadow="2"
     inkscape:zoom="0.35"
     inkscape:cx="181.71675"
     inkscape:cy="-205.66715"
     inkscape:document-units="px"
     inkscape:current-layer="layer1"
     showgrid="false"
     fit-margin-top="0"
     fit-margin-left="0"
     fit-margin-right="0"
     fit-margin-bottom="0"
     inkscape:window-width="1855"
     inkscape:window-height="1056"
     inkscape:window-x="65"
     inkscape:window-y="24"
     inkscape:window-maximized="1" />
  <metadata
     id="metadata6502">
    <rdf:RDF>
      <cc:Work
         rdf:about="">
        <dc:format>image/svg+xml</dc:format>
        <dc:type
           rdf:resource="http://purl.org/dc/dcmitype/StillImage" />
        <dc:title />
      </cc:Work>
    </rdf:RDF>
  </metadata>
  <g
     inkscape:label="Layer 1"
     inkscape:groupmode="layer"
     id="layer1"
     transform="translate(838.14532,-269.45793)">
    <g
       transform="matrix(1.25,0,0,-1.25,-1135.4982,829.70768)"
       id="g1640">
      <g
         id="g1642"
         clip-path="url(#clipPath1644)">
        <g
           id="g1648"
           transform="translate(354.6997,433.5298)">
          <path
             d="m 0,0 c 0,-8.103 -6.765,-14.671 -15.11,-14.671 l -72.648,0 c -8.345,0 -15.111,6.568 -15.111,14.671 0,8.103 6.766,14.67 15.111,14.67 l 72.648,0 C -6.765,14.67 0,8.103 0,0"
             style="fill:#d77d2b;fill-opacity:1;fill-rule:nonzero;stroke:none"
             id="path1650"
             inkscape:connector-curvature="0" />
        </g>
        <g
           id="g1652"
           transform="translate(367.4863,430.9038)">
          <path
             d="m 0,0 c 0,-5.454 -4.034,-9.875 -9.008,-9.875 l -111.588,0 c -4.975,0 -9.008,4.421 -9.008,9.875 0,5.454 4.033,9.875 9.008,9.875 l 111.588,0 C -4.034,9.875 0,5.454 0,0"
             style="fill:#c9542f;fill-opacity:1;fill-rule:nonzero;stroke:none"
             id="path1654"
             inkscape:connector-curvature="0" />
        </g>
        <g
           id="g1656"
           transform="translate(357.4053,432.3843)">
          <path
             d="M 0,0 C -2.604,0 -3.96,1.454 -5.05,2.622 -6.037,3.68 -6.816,4.516 -8.425,4.516 -10.034,4.516 -10.813,3.68 -11.8,2.622 -12.89,1.454 -14.246,0 -16.85,0 c -2.604,0 -3.959,1.454 -5.048,2.623 -0.986,1.057 -1.765,1.893 -3.372,1.893 -1.607,0 -2.386,-0.836 -3.373,-1.894 C -29.732,1.454 -31.088,0 -33.691,0 c -2.602,0 -3.958,1.454 -5.047,2.622 -0.987,1.058 -1.765,1.894 -3.372,1.894 -1.606,0 -2.385,-0.836 -3.371,-1.893 C -46.57,1.454 -47.925,0 -50.527,0 c -2.602,0 -3.957,1.454 -5.046,2.623 -0.986,1.057 -1.765,1.893 -3.371,1.893 -1.606,0 -2.384,-0.835 -3.37,-1.893 C -63.403,1.455 -64.758,0 -67.361,0 c -2.601,0 -3.955,1.454 -5.044,2.623 -0.985,1.057 -1.763,1.893 -3.369,1.893 -1.606,0 -2.385,-0.835 -3.371,-1.893 C -80.234,1.455 -81.589,0 -84.193,0 c -2.603,0 -3.958,1.454 -5.047,2.623 -0.986,1.057 -1.764,1.893 -3.37,1.893 -1.606,0 -2.384,-0.836 -3.37,-1.893 C -97.069,1.454 -98.423,0 -101.026,0 c -2.603,0 -3.958,1.454 -5.047,2.623 -0.986,1.057 -1.764,1.893 -3.37,1.893 -0.632,0 -1.145,0.513 -1.145,1.145 0,0.632 0.513,1.146 1.145,1.146 2.602,0 3.957,-1.454 5.046,-2.622 0.986,-1.059 1.765,-1.894 3.371,-1.894 1.606,0 2.384,0.835 3.37,1.893 1.089,1.169 2.444,2.623 5.046,2.623 2.602,0 3.957,-1.454 5.046,-2.623 0.986,-1.058 1.765,-1.893 3.371,-1.893 1.608,0 2.386,0.835 3.373,1.894 1.089,1.168 2.444,2.622 5.046,2.622 2.602,0 3.957,-1.455 5.045,-2.623 0.985,-1.058 1.764,-1.893 3.368,-1.893 1.607,0 2.385,0.835 3.371,1.894 1.089,1.168 2.444,2.622 5.046,2.622 2.602,0 3.958,-1.454 5.047,-2.623 0.985,-1.058 1.764,-1.893 3.37,-1.893 1.606,0 2.384,0.835 3.37,1.893 1.089,1.169 2.444,2.623 5.047,2.623 2.603,0 3.958,-1.454 5.047,-2.623 0.986,-1.058 1.766,-1.893 3.372,-1.893 1.607,0 2.386,0.835 3.373,1.893 1.089,1.169 2.445,2.623 5.048,2.623 2.603,0 3.958,-1.454 5.047,-2.622 0.987,-1.059 1.765,-1.894 3.373,-1.894 1.608,0 2.388,0.835 3.375,1.894 1.09,1.168 2.446,2.622 5.05,2.622 2.604,0 3.961,-1.454 5.05,-2.622 C -2.388,3.126 -1.608,2.291 0,2.291 0.632,2.291 1.146,1.778 1.146,1.146 1.146,0.513 0.632,0 0,0"
             style="fill:#f1b819;fill-opacity:1;fill-rule:nonzero;stroke:none"
             id="path1658"
             inkscape:connector-curvature="0" />
        </g>
        <g
           id="g1660"
           transform="translate(354.6997,417.0801)">
          <path
             d="m 0,0 c 0,-8.103 -6.765,-14.67 -15.11,-14.67 l -72.648,0 c -8.345,0 -15.111,6.567 -15.111,14.67 0,8.103 6.766,14.67 15.111,14.67 l 72.648,0 C -6.765,14.67 0,8.103 0,0"
             style="fill:#e79136;fill-opacity:1;fill-rule:nonzero;stroke:none"
             id="path1662"
             inkscape:connector-curvature="0" />
        </g>
      </g>
    </g>
  </g>
</svg>
