<?xml version="1.0" encoding="UTF-8" standalone="no"?>
<!-- Created with Inkscape (http://www.inkscape.org/) -->

<svg
   xmlns:dc="http://purl.org/dc/elements/1.1/"
   xmlns:cc="http://creativecommons.org/ns#"
   xmlns:rdf="http://www.w3.org/1999/02/22-rdf-syntax-ns#"
   xmlns:svg="http://www.w3.org/2000/svg"
   xmlns="http://www.w3.org/2000/svg"
   xmlns:sodipodi="http://sodipodi.sourceforge.net/DTD/sodipodi-0.dtd"
   xmlns:inkscape="http://www.inkscape.org/namespaces/inkscape"
   width="29.84441mm"
   height="39.05204mm"
   viewBox="0 0 105.74791 138.37337"
   id="svg7505"
   version="1.1"
   inkscape:version="0.91 r"
   sodipodi:docname="ice-cream.svg"
   inkscape:export-filename="/home/joel/repos/cs3226/cs3226-lab-1/app/images/fast-food/ice-cream.png"
   inkscape:export-xdpi="90"
   inkscape:export-ydpi="90">
  <defs
     id="defs7507">
    <clipPath
       clipPathUnits="userSpaceOnUse"
       id="clipPath872">
      <path
         d="m 271.951,186.652 11.613,0 0,-46.916 -11.613,0 0,46.916 z"
         id="path874"
         inkscape:connector-curvature="0" />
    </clipPath>
    <clipPath
       clipPathUnits="userSpaceOnUse"
       id="clipPath888">
      <path
         d="m 287.17,183.594 6.149,0 0,-43.755 -6.149,0 0,43.755 z"
         id="path890"
         inkscape:connector-curvature="0" />
    </clipPath>
    <clipPath
       clipPathUnits="userSpaceOnUse"
       id="clipPath904">
      <path
         d="m 326.508,186.652 11.615,0 0,-46.916 -11.615,0 0,46.916 z"
         id="path906"
         inkscape:connector-curvature="0" />
    </clipPath>
    <clipPath
       clipPathUnits="userSpaceOnUse"
       id="clipPath920">
      <path
         d="m 316.761,182.799 6.142,0 0,-42.961 -6.142,0 0,42.961 z"
         id="path922"
         inkscape:connector-curvature="0" />
    </clipPath>
    <clipPath
       clipPathUnits="userSpaceOnUse"
       id="clipPath936">
      <path
         d="m 303.148,182.705 1.905,0 0,-42.773 -1.905,0 0,42.773 z"
         id="path938"
         inkscape:connector-curvature="0" />
    </clipPath>
  </defs>
  <sodipodi:namedview
     id="base"
     pagecolor="#ffffff"
     bordercolor="#666666"
     borderopacity="1.0"
     inkscape:pageopacity="0.0"
     inkscape:pageshadow="2"
     inkscape:zoom="0.35"
     inkscape:cx="-534.98319"
     inkscape:cy="926.32951"
     inkscape:document-units="px"
     inkscape:current-layer="layer1"
     showgrid="false"
     fit-margin-top="0"
     fit-margin-left="0"
     fit-margin-right="0"
     fit-margin-bottom="0"
     inkscape:window-width="1855"
     inkscape:window-height="1056"
     inkscape:window-x="65"
     inkscape:window-y="24"
     inkscape:window-maximized="1" />
  <metadata
     id="metadata7510">
    <rdf:RDF>
      <cc:Work
         rdf:about="">
        <dc:format>image/svg+xml</dc:format>
        <dc:type
           rdf:resource="http://purl.org/dc/dcmitype/StillImage" />
        <dc:title />
      </cc:Work>
    </rdf:RDF>
  </metadata>
  <g
     inkscape:label="Layer 1"
     inkscape:groupmode="layer"
     id="layer1"
     transform="translate(121.44538,-1320.3183)">
    <g
       transform="matrix(1.25,0,0,-1.25,-567.7575,1225.5231)"
       id="g7282">
      <g
         transform="translate(412.66802,-134.39419)"
         id="g860">
        <path
           inkscape:connector-curvature="0"
           id="path862"
           style="fill:#724a3f;fill-opacity:1;fill-rule:nonzero;stroke:none"
           d="M 0,0 -6.635,3.278 22.345,58.558 28.98,55.277 0,0 Z" />
      </g>
      <g
         transform="translate(435.66752,-139.29659)"
         id="g864">
        <path
           inkscape:connector-curvature="0"
           id="path866"
           style="fill:#d0a26b;fill-opacity:1;fill-rule:nonzero;stroke:none"
           d="m 0,0 c -38.708,-12.371 -74.476,-0.479 -78.326,0.88 l -0.226,0.078 c -0.064,0.023 -0.064,-0.158 0.001,-0.403 l 12.427,-47.087 c 0.065,-0.245 0.326,-0.447 0.58,-0.447 l 53.29,-0.22 c 0.223,0.121 0.458,0.422 0.522,0.667 L 0.331,-0.306 C 0.395,-0.061 0.313,0.099 0.149,0.047 L 0,0 Z" />
      </g>
      <g
         transform="translate(91.525424,-326.27119)"
         id="g868">
        <g
           id="g870" />
        <g
           id="g876">
          <g
             style="opacity:0.69999701"
             id="g878"
             clip-path="url(#clipPath872)">
            <g
               id="g880"
               transform="translate(281.7012,139.7363)">
              <path
                 inkscape:connector-curvature="0"
                 id="path882"
                 style="fill:#b68756;fill-opacity:1;fill-rule:nonzero;stroke:none"
                 d="M 0,0 -9.75,46.525 -7.887,46.916 1.863,0.391 0,0 Z" />
            </g>
          </g>
        </g>
      </g>
      <g
         transform="translate(91.525424,-326.27119)"
         id="g884">
        <g
           id="g886" />
        <g
           id="g892">
          <g
             style="opacity:0.69999701"
             id="g894"
             clip-path="url(#clipPath888)">
            <g
               id="g896"
               transform="translate(291.4248,139.8389)">
              <path
                 inkscape:connector-curvature="0"
                 id="path898"
                 style="fill:#b68756;fill-opacity:1;fill-rule:nonzero;stroke:none"
                 d="M 0,0 -4.255,43.569 -2.36,43.755 1.895,0.186 0,0 Z" />
            </g>
          </g>
        </g>
      </g>
      <g
         transform="translate(91.525424,-326.27119)"
         id="g900">
        <g
           id="g902" />
        <g
           id="g908">
          <g
             style="opacity:0.69999701"
             id="g910"
             clip-path="url(#clipPath904)">
            <g
               id="g912"
               transform="translate(328.3716,139.7363)">
              <path
                 inkscape:connector-curvature="0"
                 id="path914"
                 style="fill:#b68756;fill-opacity:1;fill-rule:nonzero;stroke:none"
                 d="M 0,0 -1.863,0.391 7.888,46.916 9.751,46.525 0,0 Z" />
            </g>
          </g>
        </g>
      </g>
      <g
         transform="translate(91.525424,-326.27119)"
         id="g916">
        <g
           id="g918" />
        <g
           id="g924">
          <g
             style="opacity:0.69999701"
             id="g926"
             clip-path="url(#clipPath920)">
            <g
               id="g928"
               transform="translate(318.6558,139.8379)">
              <path
                 inkscape:connector-curvature="0"
                 id="path930"
                 style="fill:#b68756;fill-opacity:1;fill-rule:nonzero;stroke:none"
                 d="M 0,0 -1.895,0.187 2.353,42.961 4.248,42.773 0,0 Z" />
            </g>
          </g>
        </g>
      </g>
      <g
         transform="translate(91.525424,-326.27119)"
         id="g932">
        <g
           id="g934" />
        <g
           id="g940">
          <g
             style="opacity:0.69999701"
             id="g942"
             clip-path="url(#clipPath936)">
            <path
               inkscape:connector-curvature="0"
               id="path944"
               style="fill:#b68756;fill-opacity:1;fill-rule:nonzero;stroke:none"
               d="m 305.053,139.932 -1.904,0 0,42.773 1.904,0 0,-42.773 z" />
          </g>
        </g>
      </g>
      <g
         transform="translate(435.66752,-139.29659)"
         id="g946">
        <path
           inkscape:connector-curvature="0"
           id="path948"
           style="fill:#eac591;fill-opacity:1;fill-rule:nonzero;stroke:none"
           d="M 0,0 C 0.625,2.387 0.605,5.191 -0.766,6.998 -8.593,17.325 -26.952,30.132 -51,24.368 -54.654,23.49 -76.198,17.011 -78.535,4.323 c -0.153,-0.83 -0.1,-2.1 0.209,-3.443 C -74.476,-0.479 -38.708,-12.371 0,0" />
      </g>
      <g
         transform="translate(393.12942,-108.39719)"
         id="g950">
        <path
           inkscape:connector-curvature="0"
           id="path952"
           style="fill:#e18ea4;fill-opacity:1;fill-rule:evenodd;stroke:none"
           d="m 0,0 c -9.825,-0.533 -18.987,-5.588 -26.786,-12.225 -0.816,-0.699 -3.776,-3.324 -3.839,-5.811 -0.072,-2.847 4.239,-2.411 6.928,1.28 2.599,3.568 3.31,3.666 4.692,3.377 1.552,-0.506 0.234,-2.728 -0.323,-3.679 -0.849,-1.445 -1.863,-3.515 -5.88,-8.573 -1.347,-1.696 -0.395,-5.804 2.66,-5.915 6.953,-0.26 6.698,6.498 8.258,10.49 0.55,1.404 1.765,3.831 3.223,4.021 3.281,0.498 0.202,-4.504 0.772,-5.98 0.583,-1.518 2.509,-2.162 3.983,0 0.754,1.102 1.235,3.661 2.312,4.391 2.288,1.542 3.363,-1.339 4.027,-3.285 0.796,-2.336 0.88,-7.689 2.196,-9.748 1.542,-2.416 4.389,-2.695 5.697,0.291 1.279,2.935 2.018,7.171 2.949,10.138 0.318,1.003 1.244,2.258 2.353,1.931 1.367,-0.401 2.435,-3.415 3.021,-4.67 0.858,-1.809 5.761,-11.515 8.332,-6.545 1.605,3.112 -2.919,9.806 -3.325,12.83 -0.127,0.946 -0.363,1.895 0.619,2.449 1.131,0.634 4.248,0.836 4.552,-2.735 0.38,-4.45 3.788,-5.464 6.382,-5.87 0.983,-0.154 3.138,0.402 2.677,2.661 -0.178,0.868 -0.622,1.837 -0.979,2.543 -0.215,0.424 -1.249,1.89 -1.018,2.378 0.381,0.811 3.071,-1.888 3.475,-2.176 1.156,1.664 -4.191,5.458 -5.93,7.035 C 17.284,1.095 0,0 0,0" />
      </g>
      <g
         transform="translate(413.72712,-104.64229)"
         id="g954">
        <path
           inkscape:connector-curvature="0"
           id="path956"
           style="fill:#f3e8e8;fill-opacity:1;fill-rule:nonzero;stroke:none"
           d="m 0,0 c -3.229,2.225 -6.883,3.921 -8.598,5.017 -5.391,3.433 -6.938,8.827 1.218,11.676 -5.837,2.779 -14.277,0.653 -18.842,-3.833 -5.43,-5.329 -10.655,-14.582 -6.139,-23.728 3.407,-6.903 13.329,-7.927 18.872,-8.011 5.996,-0.092 13.426,0.543 17.892,6.334 C 8.35,-7.428 4.604,-3.177 0,0" />
      </g>
      <g
         transform="translate(385.75252,-114.29659)"
         id="g958">
        <path
           inkscape:connector-curvature="0"
           id="path960"
           style="fill:#724a3f;fill-opacity:1;fill-rule:nonzero;stroke:none"
           d="m 0,0 c 0,-0.247 -0.208,-0.452 -0.465,-0.452 -0.257,0 -0.466,0.205 -0.466,0.452 l 0,1.6 c 0,0.253 0.209,0.454 0.466,0.454 C -0.208,2.054 0,1.853 0,1.6 L 0,0 Z" />
      </g>
      <g
         transform="translate(407.61182,-105.91479)"
         id="g962">
        <path
           inkscape:connector-curvature="0"
           id="path964"
           style="fill:#724a3f;fill-opacity:1;fill-rule:nonzero;stroke:none"
           d="m 0,0 c 0,-0.25 -0.209,-0.453 -0.465,-0.453 -0.258,0 -0.467,0.203 -0.467,0.453 l 0,1.599 c 0,0.25 0.209,0.453 0.467,0.453 C -0.209,2.052 0,1.849 0,1.599 L 0,0 Z" />
      </g>
      <g
         transform="translate(394.55522,-116.19989)"
         id="g966">
        <path
           inkscape:connector-curvature="0"
           id="path968"
           style="fill:#724a3f;fill-opacity:1;fill-rule:nonzero;stroke:none"
           d="M 0,0 C 0.19,-0.167 0.205,-0.454 0.033,-0.638 -0.14,-0.823 -0.433,-0.839 -0.624,-0.671 L -1.849,0.4 c -0.191,0.168 -0.206,0.454 -0.034,0.64 0.173,0.185 0.467,0.2 0.659,0.03 L 0,0 Z" />
      </g>
      <g
         transform="translate(396.68652,-110.26919)"
         id="g970">
        <path
           inkscape:connector-curvature="0"
           id="path972"
           style="fill:#724a3f;fill-opacity:1;fill-rule:nonzero;stroke:none"
           d="m 0,0 c -0.094,-0.234 -0.364,-0.346 -0.604,-0.254 -0.238,0.09 -0.356,0.352 -0.262,0.584 l 0.605,1.489 C -0.166,2.052 0.104,2.165 0.343,2.073 0.582,1.983 0.7,1.72 0.605,1.487 L 0,0 Z" />
      </g>
      <g
         transform="translate(405.26562,-119.60319)"
         id="g974">
        <path
           inkscape:connector-curvature="0"
           id="path976"
           style="fill:#724a3f;fill-opacity:1;fill-rule:nonzero;stroke:none"
           d="M 0,0 C -0.095,-0.232 -0.365,-0.348 -0.604,-0.255 -0.843,-0.164 -0.96,0.098 -0.866,0.33 l 0.605,1.489 C -0.167,2.052 0.103,2.165 0.343,2.073 0.582,1.981 0.699,1.72 0.604,1.487 L 0,0 Z" />
      </g>
      <g
         transform="translate(406.01472,-111.38449)"
         id="g978">
        <path
           inkscape:connector-curvature="0"
           id="path980"
           style="fill:#724a3f;fill-opacity:1;fill-rule:nonzero;stroke:none"
           d="m 0,0 c 0.162,-0.194 0.131,-0.478 -0.068,-0.636 -0.2,-0.157 -0.493,-0.127 -0.655,0.068 l -1.038,1.244 c -0.162,0.193 -0.131,0.476 0.068,0.636 0.2,0.155 0.494,0.125 0.656,-0.068 L 0,0 Z" />
      </g>
      <g
         transform="translate(414.76952,-112.50169)"
         id="g982">
        <path
           inkscape:connector-curvature="0"
           id="path984"
           style="fill:#724a3f;fill-opacity:1;fill-rule:nonzero;stroke:none"
           d="m 0,0 c -0.047,-0.244 -0.291,-0.403 -0.544,-0.359 -0.251,0.047 -0.418,0.282 -0.37,0.528 l 0.307,1.571 c 0.048,0.248 0.291,0.406 0.544,0.362 C 0.19,2.055 0.356,1.817 0.308,1.574 L 0,0 Z" />
      </g>
      <g
         transform="translate(386.58692,-104.39129)"
         id="g986">
        <path
           inkscape:connector-curvature="0"
           id="path988"
           style="fill:#724a3f;fill-opacity:1;fill-rule:nonzero;stroke:none"
           d="M 0,0 C -0.256,-0.021 -0.48,0.165 -0.501,0.413 -0.52,0.665 -0.33,0.88 -0.072,0.899 L 1.57,1.026 C 1.827,1.048 2.051,0.86 2.072,0.61 2.092,0.361 1.9,0.145 1.644,0.125 L 0,0 Z" />
      </g>
      <g
         transform="translate(399.25492,-101.98309)"
         id="g990">
        <path
           inkscape:connector-curvature="0"
           id="path992"
           style="fill:#724a3f;fill-opacity:1;fill-rule:nonzero;stroke:none"
           d="m 0,0 c 0.06,-0.243 -0.095,-0.486 -0.345,-0.543 -0.251,-0.059 -0.501,0.091 -0.56,0.336 L -1.287,1.349 C -1.346,1.592 -1.191,1.837 -0.941,1.892 -0.691,1.95 -0.44,1.8 -0.38,1.558 L 0,0 Z" />
      </g>
      <g
         transform="translate(391.38622,-97.62179)"
         id="g994">
        <path
           inkscape:connector-curvature="0"
           id="path996"
           style="fill:#724a3f;fill-opacity:1;fill-rule:nonzero;stroke:none"
           d="m 0,0 c 0.06,-0.24 -0.095,-0.484 -0.345,-0.543 -0.251,-0.059 -0.501,0.092 -0.561,0.334 l -0.381,1.558 c -0.06,0.242 0.095,0.486 0.346,0.546 C -0.69,1.951 -0.44,1.8 -0.38,1.559 L 0,0 Z" />
      </g>
      <g
         transform="translate(395.63822,-93.23999)"
         id="g998">
        <path
           inkscape:connector-curvature="0"
           id="path1000"
           style="fill:#724a3f;fill-opacity:1;fill-rule:nonzero;stroke:none"
           d="m 0,0 c -0.16,-0.195 -0.453,-0.229 -0.654,-0.071 -0.2,0.155 -0.234,0.439 -0.073,0.633 L 0.3,1.815 C 0.461,2.011 0.753,2.042 0.954,1.886 1.156,1.731 1.188,1.446 1.029,1.251 L 0,0 Z" />
      </g>
    </g>
  </g>
</svg>
